<?xml version="1.0" encoding="UTF-8"?>
<svg id="Layer_1" xmlns="http://www.w3.org/2000/svg" viewBox="0 0 534.93 541.64">
  <defs>
    <style>
      .cls-1 {
        fill: #2e0552;
      }

      .cls-2 {
        stroke: #231f20;
      }

      .cls-2, .cls-3, .cls-4, .cls-5, .cls-6, .cls-7, .cls-8, .cls-9, .cls-10, .cls-11, .cls-12, .cls-13, .cls-14 {
        stroke-miterlimit: 10;
      }

      .cls-2, .cls-3, .cls-6, .cls-8, .cls-14 {
        fill: none;
      }

      .cls-15 {
        fill: #696a6c;
      }

      .cls-16, .cls-7 {
        fill: #231f20;
      }

      .cls-3, .cls-4, .cls-7, .cls-8, .cls-10, .cls-11, .cls-13, .cls-14 {
        stroke: #fff;
      }

      .cls-4 {
        fill: #1e3160;
      }

      .cls-5, .cls-17, .cls-18, .cls-19, .cls-20, .cls-9, .cls-11, .cls-21, .cls-12, .cls-13 {
        fill: #fff;
      }

      .cls-5, .cls-18, .cls-9, .cls-21, .cls-12 {
        font-family: Arial-Black, 'Arial Black';
        font-weight: 800;
      }

      .cls-5, .cls-7, .cls-9, .cls-12, .cls-14 {
        stroke-width: 2px;
      }

      .cls-5, .cls-9, .cls-12 {
        stroke: #030022;
      }

      .cls-5, .cls-21 {
        font-size: 61.26px;
      }

      .cls-6 {
        stroke: #f1f2f2;
        stroke-width: 4px;
      }

      .cls-17 {
        font-size: 21px;
      }

      .cls-17, .cls-19, .cls-8, .cls-22, .cls-13 {
        font-family: FranklinGothic-DemiItalic, 'Franklin Gothic Demi';
        font-style: italic;
        font-weight: 300;
      }

      .cls-18 {
        font-size: 23.86px;
      }

      .cls-19 {
        font-size: 26px;
      }

      .cls-8, .cls-22, .cls-13 {
        font-size: 34px;
      }

      .cls-9 {
        font-size: 61.26px;
      }

      .cls-10 {
        fill: #ce2028;
      }

      .cls-23 {
        letter-spacing: -.02em;
      }

      .cls-22 {
        fill: #ed1c24;
      }

      .cls-12 {
        font-size: 60.94px;
      }
    </style>
  </defs>
  <path class="cls-1" d="M532.93,267.47c0,160.77-118.85,265.46-265.47,265.46S2,414.08,2,267.47,120.85,2,267.46,2s265.47,118.85,265.47,265.47"/>
  <path class="cls-6" d="M532.93,267.47c0,160.77-118.85,265.46-265.47,265.46S2,414.08,2,267.47,120.85,2,267.46,2s265.47,118.85,265.47,265.47Z"/>
  <path class="cls-4" d="M447.71,266.7c0,95.52-81.41,172.94-181.82,172.94s-181.82-77.43-181.82-172.94,81.41-172.94,181.82-172.94,181.82,77.43,181.82,172.94"/>
  <ellipse class="cls-3" cx="265.89" cy="266.7" rx="181.82" ry="172.94"/>
  <path class="cls-3" d="M175.61,96.79s3.72,51.32,44.82,114.62c0,0-6.5,5.73-9.39,9.15,0,0-51.26-46.53-70.39-99.68,0,0,14.76-13.58,34.96-24.09Z"/>
  <path class="cls-3" d="M134.41,126.47s16.87,48.61,72.96,99.12c0,0-4.79,7.21-6.7,11.27,0,0-61.56-31.68-93.79-78.07,0,0,10.74-16.94,27.53-32.32Z"/>
  <path class="cls-20" d="M102.3,165.8l-.41.28s28.97,42.7,96.32,77.02l.23-.45-.47-.16s-2.76,8.21-3.58,12.69l.49.09.11-.49s-.26-.06-.76-.17c-7.56-1.73-69.51-16.77-109.82-50.85l-.32.38.48.15s.09-.29.28-.85c1.31-3.9,7.23-20.63,17.89-37.38l-.42-.27-.41.28.41-.28-.42-.27c-12.27,19.27-18.28,38.44-18.28,38.47l-.1.32.25.21c43.29,36.57,110.98,51.22,111.02,51.24l.51.11.09-.51c.39-2.16,1.28-5.31,2.06-7.91.39-1.3.76-2.46,1.03-3.3.27-.84.44-1.34.44-1.35l.14-.41-.38-.2c-33.57-17.11-57.57-36.29-73.16-51.2-7.8-7.45-13.5-13.83-17.24-18.34-1.87-2.26-3.26-4.05-4.18-5.27-.46-.61-.8-1.08-1.02-1.4-.23-.32-.33-.48-.33-.48l-.43-.63-.41.64.42.27"/>
  <path class="cls-3" d="M81.46,212.11s38.92,33.66,112.75,49.36c0,0-.54,8.65-.17,13.11,0,0-69.15,3.34-120.26-20.71,0,0,.83-20.04,7.68-41.76Z"/>
  <path class="cls-3" d="M73.31,262.23s46.3,22.44,121.67,18.5c0,0,1.71,8.49,3.23,12.71,0,0-65.93,21.12-121.52,11.12,0,0-4.38-19.58-3.38-42.32Z"/>
  <path class="cls-3" d="M78.41,312.75s50.53,9.69,122.32-13.63c0,0,3.85,7.76,6.41,11.44,0,0-58.21,37.47-114.5,42.19,0,0-9.3-17.78-14.22-40Z"/>
  <path class="cls-20" d="M96.42,360.23l.04.5c.06,0,51.46-3.74,114.86-44.9l-.27-.42-.37.33s1.44,1.63,3.3,3.62c1.87,1.99,4.16,4.34,5.9,5.82l.32-.38-.37-.34s-.18.2-.53.58c-5.28,5.68-49.28,51.81-98.95,69.68l.17.47.37-.34s-.21-.23-.6-.67c-2.73-3.08-14.25-16.57-23.42-34.18l-.44.23.04.5-.04-.5-.44.23c10.55,20.26,24.15,35.05,24.17,35.07l.22.24.31-.11c53.32-19.21,99.86-70.5,99.88-70.53l.35-.38-.4-.33c-1.68-1.42-3.97-3.76-5.82-5.74-.93-.99-1.75-1.89-2.34-2.54-.59-.65-.94-1.05-.94-1.06l-.29-.32-.36.24c-31.61,20.52-60.22,31.71-80.92,37.76-10.35,3.03-18.73,4.77-24.51,5.76-2.89.49-5.14.8-6.65.98-.76.09-1.34.15-1.73.19-.39.04-.58.05-.58.05l-.76.06.35.67.44-.23"/>
  <path class="cls-20" d="M126.1,401.43l.16.47c.05-.02,48.74-16.93,99.33-73.1l-.37-.33-.28.42s7.21,4.79,11.34,6.74l.21-.45-.44-.23s-.12.24-.36.69c-3.63,6.85-34.19,62.8-77.54,92.92l.29.41.27-.42s-.26-.17-.75-.49c-3.43-2.27-18.06-12.32-31.47-26.96l-.37.34.16.47-.16-.47-.37.34c15.43,16.84,32.4,27.6,32.42,27.62l.28.18.27-.19c46.53-32.35,78.2-93.95,78.23-93.98l.24-.46-.47-.22c-1.99-.93-4.81-2.61-7.11-4.04-1.15-.72-2.18-1.37-2.92-1.85-.74-.48-1.18-.78-1.19-.78l-.36-.24-.29.32c-25.22,28-49.96,46.21-68.39,57.42-9.21,5.6-16.85,9.46-22.18,11.91-2.66,1.23-4.75,2.1-6.17,2.67-.71.28-1.25.49-1.62.63-.37.14-.55.2-.55.2l-.72.25.51.56.37-.34"/>
  <path class="cls-3" d="M165.43,433.54s42.58-28.88,76.85-96.12c0,0,8.21,2.76,12.62,3.55,0,0-14.67,67.66-51.13,110.81,0,0-19.14-6-38.34-18.23Z"/>
  <path class="cls-3" d="M211.74,454.38s33.66-38.92,49.36-112.74c0,0,8.64.54,13.11.17,0,0,3.34,69.15-20.71,120.26,0,0-20.04-.83-41.76-7.69Z"/>
  <path class="cls-20" d="M261.86,462.53l.45.22s19.01-39.25,19.01-104.22c0-5.7-.15-11.61-.46-17.7l-.5.03.1.49s8.49-1.71,12.78-3.25l-.17-.47-.48.15s.21.67.59,1.93c2.64,8.85,13.2,46.84,13.19,86.91,0,10.84-.77,21.84-2.68,32.44l.49.09-.11-.49s-.24.05-.71.15c-3.27.67-17.48,3.37-34.66,3.37-2.23,0-4.51-.05-6.82-.15l-.02.5.45.22-.45-.22-.02.5c2.33.1,4.62.15,6.86.15,19.75,0,35.57-3.54,35.59-3.54l.32-.07.06-.33c1.92-10.68,2.7-21.73,2.7-32.62,0-45.99-13.83-89.12-13.83-89.14l-.16-.49-.49.17c-2.07.75-5.24,1.55-7.88,2.17-1.32.31-2.51.57-3.37.75-.86.18-1.38.29-1.39.29l-.42.08.02.43c.32,6.07.46,11.96.46,17.65,0,32.39-4.73,58.35-9.46,76.2-2.37,8.93-4.73,15.83-6.5,20.5-.89,2.33-1.62,4.11-2.14,5.3-.26.59-.46,1.04-.6,1.34-.14.3-.21.45-.21.45l-.33.69.76.03.02-.5"/>
  <path class="cls-20" d="M312.38,457.43l.49.09s2-10.47,2-28.59c0-21.8-2.9-54.72-15.65-93.98l-.48.15.22.45s1.95-.97,4.35-2.25c2.41-1.29,5.27-2.89,7.15-4.2l-.29-.41-.42.27s.14.22.42.66c4.12,6.57,37.29,61.01,41.7,113.61l.5-.04-.23-.44s-.27.14-.8.41c-3.68,1.84-19.69,9.48-39.08,13.78l.11.49.49.09-.49-.09.11.49c22.3-4.94,40.1-14.26,40.13-14.27l.29-.15-.03-.33c-4.75-56.47-42.26-114.7-42.27-114.73l-.28-.44-.43.3c-1.8,1.26-4.66,2.86-7.05,4.14-1.2.64-2.28,1.2-3.06,1.6-.78.4-1.26.64-1.26.64l-.39.19.13.41c12.72,39.15,15.6,71.96,15.6,93.67,0,9.02-.5,16.13-1,20.98-.25,2.42-.5,4.28-.68,5.53-.09.62-.17,1.1-.22,1.42s-.08.47-.08.47l-.14.75.74-.16-.11-.49"/>
  <path class="cls-20" d="M359.86,439.42l.5-.04c0-.06-3.74-51.46-44.9-114.86l-.42.27.33.38s1.63-1.44,3.62-3.3c1.99-1.87,4.35-4.16,5.82-5.9l-.38-.32-.34.37s.2.18.58.53c5.68,5.28,51.81,49.28,69.68,98.95l.47-.17-.34-.37s-.23.21-.67.6c-3.08,2.73-16.57,14.25-34.19,23.42l.23.44.5-.04-.5.04.23.44c20.26-10.55,35.05-24.15,35.07-24.17l.25-.22-.11-.31c-19.21-53.32-70.51-99.86-70.53-99.88l-.38-.35-.33.39c-1.42,1.68-3.76,3.97-5.74,5.82-.99.93-1.89,1.75-2.54,2.34-.65.59-1.06.94-1.06.94l-.32.29.24.36c20.52,31.61,31.71,60.21,37.77,80.92,3.03,10.35,4.77,18.72,5.76,24.51.49,2.89.8,5.13.98,6.65.09.76.15,1.34.19,1.73.04.39.05.58.05.58l.05.76.67-.35-.23-.44"/>
  <path class="cls-20" d="M433.18,370.41l.41-.28s-28.97-42.7-96.32-77.02l-.23.45.47.16s2.76-8.21,3.58-12.69l-.49-.09-.11.49s.26.06.76.17c7.56,1.73,69.51,16.77,109.82,50.85l.32-.38-.48-.15s-.09.29-.28.85c-1.31,3.9-7.22,20.63-17.89,37.38l.42.27.41-.28-.41.28.42.27c12.27-19.27,18.28-38.44,18.28-38.47l.1-.32-.25-.21c-43.29-36.57-110.98-51.22-111.02-51.24l-.51-.11-.09.51c-.39,2.16-1.28,5.32-2.06,7.91-.39,1.3-.76,2.46-1.03,3.29-.27.84-.44,1.35-.44,1.35l-.14.41.38.2c33.58,17.11,57.57,36.3,73.16,51.2,7.8,7.45,13.5,13.83,17.24,18.34,1.87,2.26,3.26,4.05,4.18,5.27.46.61.8,1.08,1.02,1.4.23.32.33.48.33.48l.43.63.41-.64-.42-.27"/>
  <path class="cls-3" d="M454.02,324.1s-38.92-33.66-112.75-49.35c0,0,.54-8.64.16-13.11,0,0,69.15-3.34,120.26,20.71,0,0-.83,20.04-7.68,41.76Z"/>
  <path class="cls-20" d="M462.16,273.98l.22-.45s-39.25-19.01-104.21-19.01c-5.71,0-11.62.15-17.71.47l.03.5.49-.1s-1.71-8.49-3.25-12.78l-.47.17.15.48s.67-.21,1.93-.59c8.85-2.64,46.84-13.2,86.9-13.2,10.84,0,21.84.77,32.45,2.68l.09-.49-.49.11s.05.24.15.71c.67,3.27,3.37,17.48,3.37,34.66,0,2.23-.04,4.51-.15,6.82l.5.02.22-.45-.22.45.5.02c.1-2.33.15-4.62.15-6.86,0-19.75-3.54-35.57-3.55-35.59l-.07-.32-.33-.06c-10.68-1.92-21.73-2.7-32.62-2.7-45.99,0-89.11,13.83-89.14,13.83l-.49.16.17.49c.74,2.07,1.55,5.24,2.17,7.88.31,1.32.57,2.51.75,3.37.18.86.29,1.39.29,1.39l.09.42.43-.02c6.08-.32,11.97-.46,17.66-.46,32.39,0,58.34,4.73,76.19,9.46,8.93,2.37,15.83,4.73,20.5,6.5,2.33.89,4.11,1.62,5.3,2.14.59.26,1.04.46,1.34.6.3.14.45.21.45.21l.68.33.03-.76-.5-.02"/>
  <path class="cls-20" d="M457.06,223.46l.09-.49s-10.46-2-28.58-2c-21.8,0-54.72,2.9-93.99,15.65l.15.48.45-.22s-.97-1.95-2.25-4.35c-1.29-2.41-2.89-5.27-4.2-7.15l-.41.29.27.42s.22-.14.66-.42c6.57-4.12,61.01-37.29,113.62-41.7l-.04-.5-.44.23s.14.27.41.8c1.84,3.68,9.48,19.7,13.77,39.08l.49-.11.09-.49-.09.49.49-.11c-4.94-22.3-14.26-40.1-14.27-40.13l-.15-.29-.33.03c-56.47,4.75-114.7,42.26-114.73,42.27l-.44.28.29.43c1.26,1.8,2.86,4.66,4.14,7.05.64,1.2,1.2,2.28,1.6,3.06.4.78.64,1.26.64,1.27l.19.39.41-.13c39.15-12.72,71.97-15.6,93.68-15.6,9.02,0,16.12.5,20.97,1,2.42.25,4.28.5,5.53.68.63.09,1.1.17,1.42.22.32.05.47.08.47.08l.75.14-.16-.74-.49.11"/>
  <path class="cls-11" d="M439.05,175.98s-51.32,3.72-114.62,44.82c0,0-5.73-6.49-9.15-9.39,0,0,46.53-51.26,99.68-70.39,0,0,13.58,14.76,24.1,34.96"/>
  <path class="cls-20" d="M370.04,102.66l-.28-.41s-42.7,28.97-77.02,96.32l.45.23.16-.47s-8.21-2.76-12.69-3.57l-.09.49.49.11s.06-.26.17-.76c1.73-7.56,16.77-69.51,50.85-109.83l-.38-.32-.15.48s.29.09.85.28c3.9,1.31,20.63,7.22,37.37,17.9l.27-.42-.28-.41.28.41.27-.42c-19.27-12.27-38.44-18.28-38.46-18.29l-.32-.1-.21.25c-36.57,43.29-51.23,110.99-51.24,111.02l-.11.51.51.09c2.16.39,5.32,1.27,7.91,2.06,1.3.39,2.46.76,3.29,1.03.84.27,1.34.44,1.35.44l.41.14.2-.38c17.11-33.58,36.3-57.57,51.2-73.17,7.45-7.8,13.83-13.5,18.34-17.24,2.26-1.87,4.05-3.26,5.27-4.17.61-.46,1.08-.8,1.4-1.02.32-.23.48-.33.48-.33l.63-.43-.64-.41-.27.42"/>
  <path class="cls-3" d="M323.73,81.82s-33.66,38.92-49.36,112.75c0,0-8.64-.54-13.11-.17,0,0-3.34-69.15,20.71-120.26,0,0,20.04.83,41.76,7.68Z"/>
  <path class="cls-20" d="M273.61,73.68l-.45-.22s-19.01,39.25-19.01,104.23c0,5.7.15,11.6.46,17.69l.5-.03-.1-.49s-8.49,1.71-12.78,3.25l.17.47.48-.15s-.21-.67-.59-1.93c-2.64-8.85-13.2-46.84-13.19-86.9,0-10.84.77-21.84,2.68-32.45l-.49-.09.11.49s.24-.05.71-.15c3.27-.67,17.48-3.37,34.66-3.37,2.23,0,4.51.05,6.82.15l.02-.5-.45-.22.45.22.02-.5c-2.33-.1-4.62-.15-6.86-.15-19.75,0-35.57,3.54-35.59,3.55l-.32.07-.06.33c-1.92,10.68-2.7,21.74-2.7,32.63,0,45.99,13.83,89.11,13.83,89.14l.16.49.49-.17c2.07-.75,5.24-1.55,7.88-2.17,1.32-.31,2.51-.57,3.37-.75.86-.18,1.38-.29,1.39-.29l.42-.09-.02-.43c-.32-6.07-.46-11.95-.46-17.64,0-32.39,4.73-58.35,9.46-76.21,2.37-8.93,4.73-15.83,6.5-20.5.89-2.33,1.62-4.11,2.14-5.3.26-.6.46-1.04.6-1.34.14-.3.21-.45.21-.45l.33-.68-.76-.03-.02.5"/>
  <g>
    <path class="cls-11" d="M409.37,134.78s-48.61,16.88-99.12,72.96c0,0-7.21-4.79-11.27-6.7,0,0,31.68-61.56,78.06-93.79,0,0,16.94,10.74,32.33,27.53"/>
    <path class="cls-11" d="M175.61,96.79s3.72,51.32,44.82,114.62c0,0-6.5,5.73-9.39,9.15,0,0-51.26-46.53-70.39-99.68,0,0,14.76-13.58,34.96-24.09Z"/>
    <path class="cls-11" d="M134.41,126.47s16.87,48.61,72.96,99.12c0,0-4.79,7.21-6.7,11.27,0,0-61.56-31.68-93.79-78.07,0,0,10.74-16.94,27.53-32.32Z"/>
    <path class="cls-11" d="M102.3,165.8s28.88,42.58,96.13,76.86c0,0-2.76,8.21-3.56,12.62,0,0-67.66-14.67-110.8-51.13,0,0,6-19.15,18.23-38.35"/>
    <path class="cls-11" d="M81.46,212.11s38.92,33.66,112.75,49.36c0,0-.54,8.65-.17,13.11,0,0-69.15,3.34-120.26-20.71,0,0,.83-20.04,7.68-41.76Z"/>
    <path class="cls-11" d="M73.31,262.23s46.3,22.44,121.67,18.5c0,0,1.71,8.49,3.23,12.71,0,0-65.93,21.12-121.52,11.12,0,0-4.38-19.58-3.38-42.32Z"/>
    <path class="cls-11" d="M78.41,312.75s50.53,9.69,122.32-13.63c0,0,3.85,7.76,6.41,11.44,0,0-58.21,37.47-114.5,42.19,0,0-9.3-17.78-14.22-40Z"/>
    <path class="cls-11" d="M96.42,360.23s51.32-3.72,114.62-44.82c0,0,5.73,6.5,9.15,9.39,0,0-46.53,51.26-99.68,70.39,0,0-13.58-14.76-24.09-34.96"/>
    <path class="cls-11" d="M126.1,401.43s48.6-16.88,99.12-72.96c0,0,7.21,4.79,11.27,6.7,0,0-31.68,61.56-78.07,93.79,0,0-16.94-10.74-32.32-27.53"/>
    <path class="cls-11" d="M165.43,433.54s42.58-28.88,76.85-96.12c0,0,8.21,2.76,12.62,3.55,0,0-14.67,67.66-51.13,110.81,0,0-19.14-6-38.34-18.23Z"/>
    <path class="cls-11" d="M211.74,454.38s33.66-38.92,49.36-112.74c0,0,8.64.54,13.11.17,0,0,3.34,69.15-20.71,120.26,0,0-20.04-.83-41.76-7.69Z"/>
    <path class="cls-11" d="M261.86,462.53s22.44-46.3,18.5-121.68c0,0,8.49-1.71,12.71-3.23,0,0,21.12,65.93,11.12,121.52,0,0-19.58,4.38-42.32,3.39"/>
    <path class="cls-11" d="M312.38,457.43s9.69-50.53-13.63-122.32c0,0,7.76-3.85,11.44-6.41,0,0,37.47,58.22,42.2,114.5,0,0-17.77,9.3-40,14.23"/>
    <path class="cls-11" d="M359.86,439.42s-3.72-51.32-44.83-114.62c0,0,6.5-5.73,9.39-9.15,0,0,51.26,46.53,70.39,99.68,0,0-14.77,13.58-34.96,24.09"/>
    <path class="cls-11" d="M401.06,409.74s-16.87-48.61-72.96-99.12c0,0,4.79-7.21,6.7-11.27,0,0,61.56,31.68,93.79,78.07,0,0-10.74,16.94-27.53,32.32"/>
    <path class="cls-11" d="M401.06,409.74l.47-.16c-.02-.05-16.93-48.74-73.1-99.33l-.33.37.42.28s4.79-7.21,6.74-11.33l-.45-.21-.23.44s.24.12.69.36c6.85,3.63,62.8,34.19,92.92,77.54l.41-.29-.42-.27s-.16.26-.49.75c-2.27,3.43-12.32,18.06-26.96,31.47l.34.37.47-.16-.47.16.34.37c16.84-15.43,27.6-32.4,27.62-32.42l.18-.28-.19-.27c-32.35-46.53-93.95-78.2-93.98-78.23l-.46-.24-.22.47c-.94,1.99-2.61,4.8-4.04,7.1-.72,1.15-1.37,2.18-1.85,2.92-.48.74-.77,1.18-.78,1.18l-.24.36.32.29c28,25.22,46.21,49.96,57.42,68.39,5.6,9.21,9.46,16.85,11.91,22.18,1.23,2.67,2.1,4.75,2.67,6.17.28.71.49,1.25.63,1.62.14.37.2.55.2.55l.25.72.56-.51-.34-.37"/>
    <path class="cls-11" d="M433.18,370.41s-28.88-42.58-96.13-76.86c0,0,2.76-8.21,3.56-12.62,0,0,67.66,14.67,110.8,51.13,0,0-5.99,19.14-18.23,38.35"/>
    <path class="cls-11" d="M454.02,324.1s-38.92-33.66-112.75-49.35c0,0,.54-8.64.16-13.11,0,0,69.15-3.34,120.26,20.71,0,0-.83,20.04-7.68,41.76Z"/>
    <path class="cls-11" d="M462.16,273.98s-46.3-22.44-121.68-18.49c0,0-1.72-8.49-3.23-12.71,0,0,65.93-21.13,121.52-11.12,0,0,4.38,19.58,3.39,42.32"/>
    <path class="cls-11" d="M457.06,223.46s-50.53-9.69-122.32,13.63c0,0-3.85-7.76-6.41-11.44,0,0,58.21-37.47,114.51-42.19,0,0,9.3,17.78,14.22,40"/>
    <path class="cls-11" d="M370.04,102.66s-42.58,28.88-76.86,96.13c0,0-8.21-2.76-12.62-3.55,0,0,14.67-67.66,51.13-110.81,0,0,19.14,5.99,38.34,18.23"/>
    <path class="cls-11" d="M323.73,81.82s-33.66,38.92-49.36,112.75c0,0-8.64-.54-13.11-.17,0,0-3.34-69.15,20.71-120.26,0,0,20.04.83,41.76,7.68Z"/>
    <path class="cls-11" d="M273.61,73.68s-22.44,46.3-18.5,121.68c0,0-8.49,1.71-12.71,3.23,0,0-21.12-65.93-11.12-121.53,0,0,19.58-4.38,42.32-3.39"/>
    <path class="cls-11" d="M223.09,78.78s-9.69,50.53,13.63,122.32c0,0-7.76,3.85-11.44,6.41,0,0-37.47-58.22-42.2-114.51,0,0,17.78-9.3,40.01-14.23"/>
  </g>
  <path class="cls-20" d="M223.09,78.78l-.49-.09s-2,10.47-2,28.58c0,21.8,2.9,54.72,15.65,93.98l.48-.15-.22-.45s-1.95.97-4.35,2.25c-2.41,1.29-5.27,2.89-7.15,4.2l.29.41.42-.27s-.14-.22-.42-.66c-4.12-6.57-37.29-61.01-41.7-113.62l-.5.04.23.44s.27-.14.8-.4c3.68-1.84,19.7-9.48,39.08-13.77l-.11-.49-.49-.09.49.09-.11-.49c-22.3,4.94-40.11,14.26-40.13,14.27l-.29.15.03.33c4.75,56.47,42.26,114.7,42.27,114.74l.28.44.43-.3c1.8-1.26,4.66-2.86,7.05-4.14,1.2-.64,2.28-1.2,3.06-1.6.78-.4,1.26-.64,1.27-.64l.39-.19-.13-.41c-12.72-39.15-15.6-71.96-15.6-93.68,0-9.02.5-16.13,1-20.97.25-2.42.5-4.28.68-5.53.09-.63.17-1.1.22-1.42s.08-.47.08-.47l.14-.75-.74.16.11.49"/>
  <polygon class="cls-7" points="300.86 431.96 267.36 450.71 234.37 431.08 234.88 392.69 268.38 373.94 301.37 393.58 300.86 431.96"/>
  <path class="cls-16" d="M401.74,402.79c0,6.92-5.61,12.53-12.53,12.53h-242.68c-6.92,0-12.53-5.61-12.53-12.53V136.16c0-6.92,5.61-12.53,12.53-12.53h242.68c6.92,0,12.53,5.61,12.53,12.53v266.63"/>
  <rect class="cls-14" x="133.75" y="123.63" width="267.75" height="291.7" rx="12.53" ry="12.53"/>
  <circle class="cls-4" cx="382.19" cy="393.15" r="11.32" transform="translate(-166.06 385.4) rotate(-45)"/>
  <circle class="cls-10" cx="152.36" cy="393.15" r="11.32" transform="translate(-137.99 87.41) rotate(-22.34)"/>
  <circle class="cls-4" cx="152.36" cy="143.81" r="11.32" transform="translate(-43.23 68.7) rotate(-22.34)"/>
  <circle class="cls-10" cx="382.19" cy="143.81" r="11.32" transform="translate(10.25 312.37) rotate(-45)"/>
  <text class="cls-18" transform="translate(185.61 354.74)"><tspan x="0" y="0">2016</tspan></text>
  <text class="cls-9" transform="translate(83.07 358.4) rotate(-110.27)"><tspan x="0" y="0">B</tspan></text>
  <text class="cls-5" transform="translate(67.22 315.67) rotate(-98.04)"><tspan x="0" y="0">E</tspan></text>
  <text class="cls-9" transform="translate(60.96 273.98) rotate(-85.75)"><tspan x="0" y="0">R</tspan></text>
  <text class="cls-5" transform="translate(63.71 229.64) rotate(-73.04)"><tspan x="0" y="0">G</tspan></text>
  <text class="cls-5" transform="translate(78.09 182.93) rotate(-60.37)"><tspan x="0" y="0">E</tspan></text>
  <text class="cls-5" transform="translate(98.39 145.99) rotate(-47.63)"><tspan x="0" y="0">N</tspan></text>
  <text class="cls-5" transform="translate(131.59 110.09) rotate(-35.44)"><tspan x="0" y="0">F</tspan></text>
  <text class="cls-5" transform="translate(163.91 87.72) rotate(-26.9)"><tspan x="0" y="0">I</tspan></text>
  <text class="cls-5" transform="translate(183.39 76.8) rotate(-17.88)"><tspan x="0" y="0">E</tspan></text>
  <text class="cls-5" transform="translate(223.61 63.78) rotate(-6.54)"><tspan x="0" y="0">L</tspan></text>
  <text class="cls-5" transform="translate(262.15 58.83) rotate(5.3)"><tspan x="0" y="0">D</tspan></text>
  <text class="cls-21" transform="translate(307.65 64.13) rotate(13.35)"><tspan x="0" y="0"> </tspan></text>
  <text class="cls-5" transform="translate(326.51 67.52) rotate(23.26)"><tspan x="0" y="0">D</tspan></text>
  <text class="cls-5" transform="translate(368.46 85.05) rotate(36.45)"><tspan x="0" y="0">O</tspan></text>
  <text class="cls-5" transform="translate(408.09 113.42) rotate(50.94)"><tspan x="0" y="0">M</tspan></text>
  <text class="cls-5" transform="translate(442.14 157.64) rotate(61.73)"><tspan x="0" y="0">I</tspan></text>
  <text class="cls-9" transform="translate(453.81 176.54) rotate(71.63)"><tspan x="0" y="0">N</tspan></text>
  <text class="cls-5" transform="translate(469.44 222.79) rotate(85.25)"><tspan x="0" y="0">O</tspan></text>
  <text class="cls-5" transform="translate(473.34 271.46) rotate(97.97)"><tspan x="0" y="0">E</tspan></text>
  <text class="cls-5" transform="translate(467.67 313.37) rotate(109.6)"><tspan x="0" y="0">S</tspan></text>
  <text class="cls-12" transform="translate(159.14 490.29) rotate(25.12) scale(1.05 1)"><tspan x="0" y="0">C</tspan></text>
  <text class="cls-12" transform="translate(211.24 513.12) rotate(10.31) scale(1.05 1)"><tspan x="0" y="0">L</tspan></text>
  <text class="cls-12" transform="translate(259.09 521.94) rotate(-5.27) scale(1.05 1)"><tspan x="0" y="0">U</tspan></text>
  <text class="cls-12" transform="translate(320.82 514.42) rotate(-23.47) scale(1.05 1)"><tspan x="0" y="0">B</tspan></text>
  <path class="cls-20" d="M165.9,376.7c-5.35,0-9.68-4.34-9.68-9.68v-193.79c0-5.34,4.33-9.67,9.68-9.67h87.1c5.34,0,9.68,4.33,9.68,9.67v193.79c0,5.34-4.34,9.68-9.68,9.68h-87.1"/>
  <rect class="cls-16" x="156.22" y="272.17" width="106.89" height="4.67"/>
  <path class="cls-20" d="M216.41,274.5c0,2.73-2.21,4.94-4.93,4.94s-4.93-2.21-4.93-4.94,2.2-4.93,4.93-4.93,4.93,2.2,4.93,4.93Z"/>
  <path class="cls-2" d="M216.41,274.5c0,2.73-2.21,4.94-4.93,4.94s-4.93-2.21-4.93-4.94,2.2-4.93,4.93-4.93,4.93,2.2,4.93,4.93Z"/>
  <path class="cls-16" d="M213.76,274.5c0,1.26-1.02,2.28-2.28,2.28s-2.28-1.02-2.28-2.28,1.03-2.28,2.28-2.28,2.28,1.02,2.28,2.28Z"/>
  <path class="cls-15" d="M235.19,284.17c-6.88,0-12.47,5.58-12.47,12.47s5.58,12.47,12.47,12.47,12.47-5.58,12.47-12.47-5.58-12.47-12.47-12.47"/>
  <circle class="cls-16" cx="235.19" cy="296.64" r="8.75"/>
  <path class="cls-15" d="M239.49,177.08c-6.88,0-12.47,5.58-12.47,12.47s5.58,12.47,12.47,12.47,12.47-5.58,12.47-12.47-5.58-12.47-12.47-12.47"/>
  <circle class="cls-16" cx="239.49" cy="189.54" r="8.75"/>
  <path class="cls-15" d="M184.12,341.28c-6.88,0-12.47,5.58-12.47,12.47s5.58,12.47,12.47,12.47,12.47-5.58,12.47-12.47-5.58-12.47-12.47-12.47"/>
  <circle class="cls-16" cx="184.12" cy="353.74" r="8.75"/>
  <path class="cls-15" d="M180.41,230.26c-6.88,0-12.47,5.58-12.47,12.47s5.58,12.47,12.47,12.47,12.47-5.58,12.47-12.47-5.58-12.47-12.47-12.47"/>
  <circle class="cls-16" cx="180.41" cy="242.73" r="8.75"/>
  <path class="cls-20" d="M280.09,376.7c-5.35,0-9.68-4.34-9.68-9.68v-193.79c0-5.35,4.33-9.68,9.68-9.68h87.1c5.34,0,9.68,4.33,9.68,9.68v193.79c0,5.34-4.33,9.68-9.68,9.68h-87.1"/>
  <rect class="cls-16" x="270.78" y="272.17" width="106.45" height="4.67"/>
  <path class="cls-20" d="M326.29,274.51c0,2.73-2.21,4.94-4.93,4.94s-4.94-2.21-4.94-4.94,2.21-4.93,4.94-4.93,4.93,2.21,4.93,4.93Z"/>
  <path class="cls-2" d="M326.29,274.51c0,2.73-2.21,4.94-4.93,4.94s-4.94-2.21-4.94-4.94,2.21-4.93,4.94-4.93,4.93,2.21,4.93,4.93Z"/>
  <path class="cls-16" d="M323.64,274.51c0,1.26-1.02,2.28-2.28,2.28s-2.28-1.02-2.28-2.28,1.02-2.28,2.28-2.28,2.28,1.02,2.28,2.28Z"/>
  <path class="cls-15" d="M295.73,230.26c-6.88,0-12.47,5.58-12.47,12.47s5.58,12.47,12.47,12.47,12.47-5.58,12.47-12.47-5.58-12.47-12.47-12.47"/>
  <circle class="cls-16" cx="295.73" cy="242.73" r="8.75"/>
  <path class="cls-15" d="M351.59,230.26c-6.88,0-12.47,5.58-12.47,12.47s5.58,12.47,12.47,12.47,12.47-5.58,12.47-12.47-5.58-12.47-12.47-12.47"/>
  <circle class="cls-16" cx="351.59" cy="242.73" r="8.75"/>
  <path class="cls-15" d="M350.01,284.17c-6.89,0-12.47,5.58-12.47,12.47s5.58,12.47,12.47,12.47,12.47-5.58,12.47-12.47-5.58-12.47-12.47-12.47"/>
  <circle class="cls-16" cx="350.01" cy="296.64" r="8.75"/>
  <path class="cls-15" d="M321.08,202.18c-6.88,0-12.47,5.58-12.47,12.47s5.58,12.47,12.47,12.47,12.47-5.58,12.47-12.47-5.58-12.47-12.47-12.47"/>
  <circle class="cls-16" cx="321.08" cy="214.64" r="8.75"/>
  <path class="cls-15" d="M292.27,177.08c-6.88,0-12.47,5.58-12.47,12.47s5.58,12.47,12.47,12.47,12.47-5.58,12.47-12.47-5.58-12.47-12.47-12.47"/>
  <circle class="cls-16" cx="292.27" cy="189.54" r="8.75"/>
  <path class="cls-15" d="M351.59,177.08c-6.88,0-12.47,5.58-12.47,12.47s5.58,12.47,12.47,12.47,12.47-5.58,12.47-12.47-5.58-12.47-12.47-12.47"/>
  <circle class="cls-16" cx="351.59" cy="189.54" r="8.75"/>
  <path class="cls-15" d="M319.95,312.64c-6.89,0-12.47,5.58-12.47,12.47s5.58,12.47,12.47,12.47,12.47-5.58,12.47-12.47-5.58-12.47-12.47-12.47"/>
  <circle class="cls-16" cx="319.95" cy="325.11" r="8.75"/>
  <path class="cls-15" d="M294.81,341.28c-6.89,0-12.47,5.58-12.47,12.47s5.58,12.47,12.47,12.47,12.47-5.58,12.47-12.47-5.58-12.47-12.47-12.47"/>
  <circle class="cls-16" cx="294.81" cy="353.74" r="8.75"/>
  <text class="cls-22" transform="translate(398.76 469.08) rotate(-33.27)"><tspan x="0" y="0">2</tspan></text>
  <text class="cls-13" transform="translate(398.76 469.08) rotate(-33.27)"><tspan x="0" y="0">2</tspan></text>
  <text class="cls-22" transform="translate(416.12 457.68) rotate(-37.25)"><tspan x="0" y="0">0</tspan></text>
  <text class="cls-13" transform="translate(416.12 457.68) rotate(-37.25)"><tspan x="0" y="0">0</tspan></text>
  <text class="cls-22" transform="translate(432.1 445.6) rotate(-41.03)"><tspan x="0" y="0">1</tspan></text>
  <text class="cls-13" transform="translate(432.1 445.6) rotate(-41.03)"><tspan x="0" y="0">1</tspan></text>
  <text class="cls-22" transform="translate(447.32 432.32) rotate(-44.85)"><tspan x="0" y="0">6</tspan></text>
  <text class="cls-13" transform="translate(447.32 432.32) rotate(-44.85)"><tspan x="0" y="0">6</tspan></text>
  <text class="cls-22" transform="translate(461.82 417.69) rotate(-47.65)"><tspan x="0" y="0"> </tspan></text>
  <text class="cls-8" transform="translate(461.82 417.69) rotate(-47.65)"><tspan x="0" y="0"> </tspan></text>
  <text class="cls-22" transform="translate(467.87 411.05) rotate(-49.33)"><tspan x="0" y="0"> </tspan></text>
  <text class="cls-8" transform="translate(467.87 411.05) rotate(-49.33)"><tspan x="0" y="0"> </tspan></text>
  <text class="cls-22" transform="translate(473.55 404.28) rotate(-51.01)"><tspan x="0" y="0"> </tspan></text>
  <text class="cls-8" transform="translate(473.55 404.28) rotate(-51.01)"><tspan x="0" y="0"> </tspan></text>
  <text class="cls-22" transform="translate(479.26 397.35) rotate(-52.69)"><tspan x="0" y="0"> </tspan></text>
  <text class="cls-8" transform="translate(479.26 397.35) rotate(-52.69)"><tspan x="0" y="0"> </tspan></text>
  <text class="cls-22" transform="translate(484.64 390.28) rotate(-54.36)"><tspan x="0" y="0"> </tspan></text>
  <text class="cls-8" transform="translate(484.64 390.28) rotate(-54.36)"><tspan x="0" y="0"> </tspan></text>
  <text class="cls-22" transform="translate(489.85 382.95) rotate(-56.04)"><tspan x="0" y="0"> </tspan></text>
  <text class="cls-8" transform="translate(489.85 382.95) rotate(-56.04)"><tspan x="0" y="0"> </tspan></text>
  <text class="cls-22" transform="translate(83.84 422.96) rotate(50.78)"><tspan x="0" y="0">E</tspan></text>
  <text class="cls-13" transform="translate(83.84 422.96) rotate(50.78)"><tspan x="0" y="0">E</tspan></text>
  <text class="cls-22" transform="translate(96.67 438.7) rotate(46.91)"><tspan x="0" y="0">S</tspan></text>
  <text class="cls-13" transform="translate(96.67 438.7) rotate(46.91)"><tspan x="0" y="0">S</tspan></text>
  <text class="cls-22" transform="translate(110.59 453.43) rotate(43.35)"><tspan x="0" y="0">T</tspan></text>
  <text class="cls-13" transform="translate(110.59 453.43) rotate(43.35)"><tspan x="0" y="0">T</tspan></text>
  <text class="cls-22" transform="translate(122.12 464.3) rotate(41.1)"><tspan x="0" y="0">.</tspan></text>
  <text class="cls-13" transform="translate(122.12 464.3) rotate(41.1)"><tspan x="0" y="0">.</tspan></text>
  <text class="cls-17" transform="translate(248.94 434.7)"><tspan x="0" y="0">BDC</tspan></text>
  <text class="cls-19" transform="translate(175.01 152.78)"><tspan x="0" y="0">DIOS PRIMERO!</tspan></text>
  <text class="cls-19" transform="translate(173.59 403.77)"><tspan x="0" y="0">QUIÉN DIJO </tspan><tspan class="cls-23" x="137.1" y="0">Y</tspan><tspan x="150.42" y="0">O?</tspan></text>
</svg>